<?xml version="1.0" standalone="no"?>
<!DOCTYPE svg PUBLIC "-//W3C//DTD SVG 20010904//EN"
 "http://www.w3.org/TR/2001/REC-SVG-20010904/DTD/svg10.dtd">
<svg version="1.0" xmlns="http://www.w3.org/2000/svg"
 width="1024.000000pt" height="1024.000000pt" viewBox="0 0 1024.000000 1024.000000"
 preserveAspectRatio="xMidYMid meet">

<g transform="translate(0.000000,1024.000000) scale(0.100000,-0.100000)"
fill="#000000" stroke="none">
<path d="M4995 7348 c-279 -33 -508 -238 -576 -518 -19 -79 -17 -251 5 -324
23 -78 64 -158 115 -226 23 -30 41 -57 41 -61 0 -4 -11 -14 -24 -23 -14 -8
-27 -24 -31 -34 -5 -17 -19 -20 -113 -24 -129 -6 -198 -28 -295 -95 -99 -67
-182 -187 -207 -298 -7 -31 -10 -374 -10 -1012 0 -916 1 -968 19 -1007 70
-158 277 -190 391 -60 63 72 60 34 60 835 0 403 3 729 8 725 4 -4 7 -809 7
-1789 l0 -1782 28 -61 c50 -109 140 -176 261 -196 150 -25 294 57 362 207 l26
56 -1 1014 -2 1015 51 0 50 0 0 -999 c0 -986 0 -1000 21 -1067 18 -57 31 -77
82 -129 75 -74 136 -100 242 -99 127 0 244 75 303 193 l27 56 3 1783 2 1782
30 0 29 0 3 -717 3 -718 28 -47 c109 -187 379 -157 436 47 8 28 11 327 11 975
0 1031 2 991 -63 1114 -60 114 -182 210 -314 249 -34 10 -104 16 -203 18
l-151 3 -20 32 c-11 18 -31 36 -44 41 l-24 8 46 60 c180 236 190 538 26 787
-135 205 -383 316 -638 286z m267 -131 c237 -86 379 -285 379 -530 0 -172 -45
-282 -166 -403 -121 -122 -219 -163 -390 -164 -170 0 -299 51 -410 164 -74 75
-123 155 -149 245 -20 70 -21 218 -1 295 49 189 210 348 409 408 87 26 236 19
328 -15z m-613 -1102 c31 -46 97 -106 152 -138 64 -37 187 -67 278 -67 177 0
323 67 422 192 l37 48 23 -19 23 -19 -29 -42 c-90 -129 -244 -205 -440 -217
-215 -12 -409 70 -504 213 -24 36 -28 51 -20 65 14 28 31 23 58 -16z m726 -51
c-129 -100 -390 -113 -547 -27 -26 14 -46 28 -44 30 3 3 40 -8 83 -23 142 -49
325 -45 460 11 68 28 75 30 48 9z m-815 -42 c0 -15 95 -105 145 -137 220 -141
552 -136 767 10 36 26 83 67 104 92 l37 45 171 -4 c145 -4 179 -7 224 -25 114
-46 208 -144 247 -258 15 -46 16 -132 15 -994 0 -814 -3 -947 -16 -972 -30
-59 -106 -83 -168 -54 -75 36 -70 -17 -76 818 -5 726 -6 749 -24 763 -14 10
-49 14 -117 14 -102 0 -129 -10 -129 -48 0 -9 0 -814 0 -1789 0 -1930 4 -1818
-53 -1896 -50 -67 -162 -102 -251 -77 -57 16 -123 72 -147 124 -18 39 -19 93
-19 1092 0 803 -3 1053 -12 1062 -8 8 -55 12 -143 12 -116 0 -134 -2 -149 -19
-15 -17 -16 -90 -10 -1032 6 -799 5 -1025 -5 -1066 -43 -177 -249 -242 -385
-122 -83 74 -76 -103 -76 1934 0 1787 0 1814 -19 1825 -11 5 -52 10 -92 10
-121 0 -109 85 -109 -785 l0 -752 -23 -34 c-63 -95 -207 -83 -237 19 -8 26
-10 330 -8 992 l3 955 32 67 c51 108 151 189 274 222 57 15 249 22 249 8z"/>
</g>
</svg>
